<svg viewBox="0 0 189 189" fill="none" xmlns="http://www.w3.org/2000/svg">
    <rect x="80.4348" y="22.8086" width="15.4402" height="18.423" fill="#2E74B5"/>
    <rect x="159.479" y="116.243" width="146.507" height="66.6736" rx="33.3368" transform="rotate(180 159.479 116.243)"
          stroke="#2E74B5" stroke-width="17.5457"/>
    <ellipse cx="117.831" cy="80.0517" rx="9.89138" ry="8.99217" fill="#2E74B5"/>
    <ellipse cx="144.609" cy="28.5109" rx="6.27258" ry="5.70235" fill="#2E74B5"/>
    <ellipse cx="163.91" cy="17.1047" rx="6.27258" ry="5.70235" fill="#2E74B5"/>
    <ellipse cx="54.6217" cy="80.4904" rx="10.3739" ry="9.43081" fill="#2E74B5"/>
    <ellipse cx="88.3973" cy="17.7638" rx="13.2689" ry="12.0627" fill="#2E74B5"/>
    <path d="M137.339 144.931L137.367 146.017C137.671 168.77 119.758 187.539 96.8738 188.171L82.3787 188.571L81.2917 188.587C58.8853 188.638 40.1456 171.101 38.7126 148.74L38.657 147.654L38.2566 137.294H55.8132L56.196 147.17C56.7206 160.726 68.1398 171.412 81.7009 171.038L96.1951 170.639C109.756 170.264 120.324 158.971 119.8 145.415L119.485 137.294H137.043L137.339 144.931Z"
          fill="#2E74B5"/>
</svg>
